<svg xmlns="http://www.w3.org/2000/svg" version="1" viewBox="0 0 24 24" enable-background="new 0 0 24 24">
    <path d="M 12 2 C 6.5 2 2 6.5 2 12 C 2 17.5 6.5 22 12 22 C 17.5 22 22 17.5 22 12 L 22 11 C 21.4 11.9 20.8125 12.70625 20.3125 13.40625 C 19.9125 15.60625 18.7 17.5125 17 18.8125 C 16.9 18.5125 16.7875 18.1125 16.6875 17.8125 C 16.5875 17.4125 16.5125 16.99375 16.3125 16.59375 C 16.2125 16.19375 16.10625 15.8 15.90625 15.5 C 15.80625 15.4 15.60625 15.2875 15.40625 15.1875 C 14.70625 14.9875 13.8125 15.29375 13.3125 14.59375 C 13.1125 14.29375 13.0875 13.99375 13.1875 13.59375 C 13.3875 13.29375 13.4875 12.9875 13.6875 12.6875 C 13.8875 12.2875 14.2125 11.8125 14.3125 11.3125 C 13.5125 10.1125 12.7125 8.70625 12.3125 7.40625 L 12.1875 7.40625 C 12.0875 7.40625 12.1 7.4125 12 7.3125 C 11.8 7.1125 11.7125 6.6125 11.8125 6.3125 C 11.8125 5.8125 12.1 5.5 12 5 C 12 4.9 11.90625 4.09375 11.90625 4.09375 C 11.60625 4.09375 11.0875 4.09375 11.1875 3.59375 L 11.1875 3.5 L 12 3.5 L 12.5 3.5 C 12.7 2.9 13.10625 2.4 13.40625 2 L 12 2 z M 18 2 C 15.8 2 14 3.8 14 6 C 14 8.2 18 13 18 13 C 18 13 22 8.2 22 6 C 22 3.8 20.2 2 18 2 z M 18 4.5 C 18.8 4.5 19.5 5.2 19.5 6 C 19.5 6.8 18.8 7.5 18 7.5 C 17.2 7.5 16.5 6.8 16.5 6 C 16.5 5.2 17.2 4.5 18 4.5 z M 8 5.09375 C 8.3625 5.06875 8.7 5.0875 9 5.1875 C 9.3 5.2875 9.6125 5.4875 9.8125 5.6875 C 10.0125 5.8875 10.3125 6.2 10.3125 6.5 C 10.3125 6.6 10.2875 6.6875 10.1875 6.6875 C 10.0875 6.7875 10.00625 6.8125 9.90625 6.8125 C 9.60625 6.8125 9.29375 6.7875 9.09375 6.6875 C 8.99375 6.5875 8.79375 6.4125 8.59375 6.3125 C 8.09375 6.1125 7.19375 7.4125 7.09375 7.8125 C 6.99375 8.1125 7 8.80625 7.5 8.90625 C 7.8 8.90625 8.4875 8.29375 8.6875 8.09375 C 8.8875 7.99375 8.9875 7.9125 9.1875 7.8125 C 9.9875 7.7125 10.6125 8.39375 10.8125 9.09375 C 11.0125 9.89375 9.6 10.4875 9 10.6875 C 8.8 10.7875 8.7 10.5875 8.5 10.6875 C 8 10.8875 7.40625 11.59375 7.40625 12.09375 C 7.40625 12.59375 7.2875 13.09375 7.1875 13.59375 C 7.0875 13.59375 7 13.5 7 13.5 L 7 13.3125 C 7 13.0125 6.89375 12.7 6.59375 12.5 C 6.49375 12.5 6.50625 12.40625 6.40625 12.40625 C 6.10625 12.30625 5.8 12.0125 5.5 12.3125 C 5.3 12.5125 5.09375 12.79375 5.09375 13.09375 C 5.09375 13.19375 5.0875 13.30625 5.1875 13.40625 C 5.3875 13.50625 5.6125 13.40625 5.8125 13.40625 C 5.9125 13.40625 5.99375 13.5875 6.09375 13.6875 C 6.29375 13.9875 6.4125 14.5 6.8125 14.5 L 7.5 14.5 L 8.8125 14.5 C 9.1125 14.6 9.6125 14.70625 9.8125 14.90625 C 9.9125 15.10625 9.9 15.3 10 15.5 C 10.4 16 11.0875 15.9875 11.6875 16.1875 C 11.8875 16.2875 12 16.39375 12 16.59375 C 12 16.89375 11.9125 17.29375 11.8125 17.59375 C 11.7125 17.89375 11.60625 18.3 11.40625 18.5 C 11.20625 18.7 11.0125 18.80625 10.8125 18.90625 C 10.4125 19.10625 10.2 19.5125 10 19.8125 C 10 19.8125 9.9125 19.99375 9.8125 20.09375 C 9.0125 19.89375 8.29375 19.59375 7.59375 19.09375 L 7.59375 18.90625 C 7.49375 18.50625 7.4125 18.20625 7.3125 17.90625 C 7.1125 17.40625 6.7875 16.8125 6.6875 16.3125 C 6.6875 15.8125 6.8 15.30625 6.5 14.90625 C 6.2 14.40625 5.40625 14.39375 4.90625 14.09375 C 4.50625 13.69375 3.99375 13.3125 3.59375 12.8125 L 3.59375 12 C 3.59375 9.3 4.90625 6.9125 6.90625 5.3125 C 7.25625 5.2125 7.6375 5.11875 8 5.09375 z" fill="#FFFFFF"></path>
</svg>