<?xml version="1.0" standalone="no"?>
<!DOCTYPE svg PUBLIC "-//W3C//DTD SVG 20010904//EN"
 "http://www.w3.org/TR/2001/REC-SVG-20010904/DTD/svg10.dtd">
<svg version="1.0" xmlns="http://www.w3.org/2000/svg"
 width="16.000000pt" height="16.000000pt" viewBox="0 0 16.000000 16.000000"
 preserveAspectRatio="xMidYMid meet">
<metadata>
Created by potrace 1.11, written by Peter Selinger 2001-2013
</metadata>
<g transform="translate(0.000000,16.000000) scale(0.002286,-0.002286)"
fill="#000000" stroke="none">
<path d="M3377 6414 c-1 -1 -45 -4 -97 -8 -90 -5 -215 -20 -270 -31 -14 -2
-41 -7 -60 -10 -105 -17 -365 -93 -501 -146 -952 -371 -1656 -1232 -1823
-2229 -24 -148 -26 -158 -33 -270 -19 -284 2 -597 54 -820 8 -36 16 -72 18
-80 16 -76 77 -275 108 -350 6 -14 11 -27 12 -30 1 -3 7 -18 13 -33 7 -16 12
-31 12 -33 0 -12 137 -284 174 -344 395 -655 975 -1109 1701 -1329 100 -31
296 -74 390 -87 27 -3 61 -8 75 -10 168 -23 594 -22 705 1 11 3 40 7 65 10
117 12 366 72 510 122 287 99 532 227 775 403 102 74 110 80 214 171 369 323
647 727 814 1179 42 113 100 307 112 370 3 14 7 36 10 50 3 14 12 61 20 105
13 77 19 119 31 235 7 70 13 512 7 523 -3 4 -61 -75 -130 -175 -69 -101 -169
-243 -222 -316 -134 -186 -140 -195 -140 -212 -2 -32 -54 -230 -88 -330 -130
-385 -319 -693 -603 -981 -131 -133 -251 -239 -271 -239 -5 0 -9 5 -9 11 0 7
-20 75 -45 153 -24 78 -46 152 -49 166 -10 58 -38 152 -75 255 -21 61 -51 148
-65 195 -50 162 -86 206 -207 259 -51 23 -86 28 -229 36 -58 3 -116 8 -130 10
-14 3 -41 7 -60 10 -45 8 -128 47 -160 77 -106 98 -129 259 -56 391 18 34 48
89 66 122 18 33 57 105 88 160 86 157 142 286 142 326 0 10 -40 80 -88 156
-49 76 -102 163 -119 193 -16 30 -57 102 -89 160 -101 177 -198 390 -254 555
-26 79 -27 80 -65 86 -118 19 -150 218 -78 487 27 103 33 163 22 232 -4 25
-10 79 -13 120 -4 41 -8 84 -11 95 -2 11 -4 23 -4 26 -1 3 -25 7 -55 8 -60 2
-115 21 -136 47 -8 9 -15 41 -16 70 l-1 54 192 0 191 0 24 58 c31 75 95 183
165 277 31 42 58 82 61 89 4 10 -48 13 -256 12 -144 0 -262 -1 -263 -2z m-804
-914 c142 -34 268 -119 364 -245 49 -65 63 -94 69 -141 8 -62 -62 -104 -164
-98 -146 8 -157 12 -237 74 -79 62 -103 74 -144 71 -114 -7 -361 -297 -399
-466 -22 -104 9 -223 71 -267 66 -47 133 -18 315 137 100 84 230 161 269 160
94 -4 176 -35 252 -95 110 -87 201 -262 186 -356 -20 -127 -187 -259 -465
-367 -81 -31 -85 -32 -140 -23 -83 14 -187 -52 -292 -184 -70 -88 -92 -153
-102 -295 -3 -44 -8 -93 -11 -110 -15 -92 -24 -140 -30 -160 -1 -5 -6 -29 -10
-52 -8 -45 -20 -52 -48 -30 -11 8 -17 30 -18 72 -3 68 -14 104 -47 158 -21 32
-98 97 -117 97 -4 0 -35 13 -70 29 -75 35 -118 43 -153 30 -59 -23 -158 -161
-163 -229 -4 -61 2 -91 22 -111 20 -20 28 -21 108 -15 86 6 87 6 112 -21 35
-38 61 -77 98 -149 38 -73 77 -119 115 -133 17 -7 142 -11 329 -11 l302 0 95
-31 c104 -34 174 -65 188 -82 6 -7 20 -48 32 -92 22 -84 40 -110 105 -154 51
-35 99 -52 265 -94 165 -43 179 -48 210 -82 48 -52 30 -208 -53 -450 -52 -152
-95 -204 -237 -285 -98 -56 -152 -109 -226 -223 -26 -40 -56 -86 -68 -104 -23
-36 -21 -36 -136 -1 -158 48 -335 129 -468 215 -31 21 -58 38 -60 39 -2 1 -6
22 -8 46 -3 23 -7 50 -11 58 -3 8 -9 31 -13 50 -18 81 -61 210 -93 280 -40 85
-96 221 -123 295 -13 38 -18 86 -20 200 -2 169 -6 201 -35 256 -48 95 -117
143 -290 200 -145 48 -197 75 -263 137 -33 32 -95 90 -136 128 -110 102 -169
166 -176 192 -7 26 1 458 10 517 3 22 8 51 11 65 3 14 8 43 11 65 42 288 191
656 379 938 130 196 364 454 519 572 91 70 428 113 589 75z"/>
<path d="M5095 6404 c-501 -70 -894 -444 -992 -944 -11 -58 -19 -166 -17 -233
8 -274 253 -775 666 -1361 69 -97 250 -345 275 -376 7 -8 59 -75 117 -148
l104 -133 59 73 c32 40 61 75 64 78 38 32 506 681 564 782 6 10 38 62 72 115
210 334 351 645 400 883 18 88 4 283 -31 410 -85 318 -316 598 -616 745 -79
40 -224 90 -286 99 -21 4 -52 9 -69 12 -64 11 -224 10 -310 -2z m275 -738
c183 -54 312 -227 313 -416 0 -228 -178 -415 -411 -434 -147 -11 -318 83 -398
221 -151 256 8 584 311 645 36 8 135 -1 185 -16z"/>
</g>
</svg>
